<mxfile host="app.diagrams.net" agent="Mozilla/5.0 (Macintosh; Intel Mac OS X 10_15_7) AppleWebKit/537.36 (KHTML, like Gecko) Chrome/131.0.0.0 Safari/537.36" version="26.0.3">
  <diagram name="Page-1" id="C8DTk_yk90BtLDSD5Gg3">
    <mxGraphModel>
      <root>
        <mxCell id="0" />
        <mxCell id="1" parent="0" />
        <mxCell id="2" value="Square Rect" style="fillColor=none;strokeColor=none;" vertex="1" parent="1">
          <mxGeometry x="8" y="66" width="145" height="54" as="geometry" />
        </mxCell>
        <mxCell id="3" value="Circle" style="ellipse;aspect=fixed;strokeWidth=2;whiteSpace=wrap;" vertex="1" parent="1">
          <mxGeometry x="298" y="12" width="57" height="57" as="geometry" />
        </mxCell>
        <mxCell id="4" value="Round Rect" style="rounded=1;arcSize=40;strokeWidth=2" vertex="1" parent="1">
          <mxGeometry x="271" y="119" width="110" height="54" as="geometry" />
        </mxCell>
        <mxCell id="5" value="Decision" style="rhombus;strokeWidth=2;whiteSpace=wrap;" vertex="1" parent="1">
          <mxGeometry x="431" y="36" width="113" height="113" as="geometry" />
        </mxCell>
        <mxCell id="6" value="Result One" style="fillColor=none;strokeColor=none;" vertex="1" parent="1">
          <mxGeometry x="627" y="14" width="137" height="54" as="geometry" />
        </mxCell>
        <mxCell id="7" value="Result Two" style="fillColor=none;strokeColor=none;" vertex="1" parent="1">
          <mxGeometry x="627" y="118" width="136" height="54" as="geometry" />
        </mxCell>
        <mxCell id="8" value="Link text" style="curved=1;startArrow=circle;startFill=0;endArrow=block;exitX=0.83;exitY=0;entryX=-0.01;entryY=0.41;" edge="1" parent="1" source="2" target="3">
          <mxGeometry relative="1" as="geometry">
            <Array as="points">
              <mxPoint x="212" y="19" />
            </Array>
          </mxGeometry>
        </mxCell>
        <mxCell id="9" value="" style="curved=1;startArrow=none;endArrow=block;exitX=1;exitY=0.66;entryX=0;entryY=0.17;" edge="1" parent="1" source="2" target="4">
          <mxGeometry relative="1" as="geometry">
            <Array as="points">
              <mxPoint x="212" y="109" />
            </Array>
          </mxGeometry>
        </mxCell>
        <mxCell id="10" value="" style="curved=1;startArrow=none;endArrow=block;exitX=0.99;exitY=0.38;entryX=0;entryY=0.06;" edge="1" parent="1" source="3" target="5">
          <mxGeometry relative="1" as="geometry">
            <Array as="points">
              <mxPoint x="406" y="21" />
            </Array>
          </mxGeometry>
        </mxCell>
        <mxCell id="11" value="" style="curved=1;startArrow=none;endArrow=block;exitX=0.81;exitY=0;entryX=0;entryY=0.44;" edge="1" parent="1" source="4" target="5">
          <mxGeometry relative="1" as="geometry">
            <Array as="points">
              <mxPoint x="406" y="83" />
            </Array>
          </mxGeometry>
        </mxCell>
        <mxCell id="12" value="Link text" style="curved=1;startArrow=none;endArrow=block;exitX=1;exitY=0.34;entryX=-0.01;entryY=0.66;" edge="1" parent="1" source="2" target="3">
          <mxGeometry relative="1" as="geometry">
            <Array as="points">
              <mxPoint x="212" y="78" />
            </Array>
          </mxGeometry>
        </mxCell>
        <mxCell id="13" value="" style="curved=1;startArrow=none;endArrow=block;exitX=0.89;exitY=1;entryX=0;entryY=0.59;" edge="1" parent="1" source="2" target="4">
          <mxGeometry relative="1" as="geometry">
            <Array as="points">
              <mxPoint x="212" y="156" />
            </Array>
          </mxGeometry>
        </mxCell>
        <mxCell id="14" value="" style="curved=1;startArrow=none;endArrow=block;exitX=0.99;exitY=0.89;entryX=0;entryY=0.57;" edge="1" parent="1" source="3" target="5">
          <mxGeometry relative="1" as="geometry">
            <Array as="points">
              <mxPoint x="406" y="103" />
            </Array>
          </mxGeometry>
        </mxCell>
        <mxCell id="15" value="" style="curved=1;startArrow=none;endArrow=block;exitX=1;exitY=0.75;entryX=0;entryY=0.95;" edge="1" parent="1" source="4" target="5">
          <mxGeometry relative="1" as="geometry">
            <Array as="points">
              <mxPoint x="406" y="166" />
            </Array>
          </mxGeometry>
        </mxCell>
        <mxCell id="16" value="One" style="curved=1;startArrow=none;endArrow=circle;endFill=0;exitX=1;exitY=0.24;entryX=0;entryY=0.5;" edge="1" parent="1" source="5" target="6">
          <mxGeometry relative="1" as="geometry">
            <Array as="points">
              <mxPoint x="586" y="41" />
            </Array>
          </mxGeometry>
        </mxCell>
        <mxCell id="17" value="Two" style="curved=1;startArrow=none;endArrow=circle;endFill=0;exitX=1;exitY=0.77;entryX=0;entryY=0.5;" edge="1" parent="1" source="5" target="7">
          <mxGeometry relative="1" as="geometry">
            <Array as="points">
              <mxPoint x="586" y="145" />
            </Array>
          </mxGeometry>
        </mxCell>
      </root>
    </mxGraphModel>
  </diagram>
</mxfile>
